# xmcd
#
# Track frame offsets: 
#        150
#        18487
#        34308
#        46465
#        59804
#        88272
#        104771
#        120300
#        145080
#        163440
#        179120
#        205342
#
# Disc length: 2928 seconds
#
# Revision: 0
# Processed by: cddbd v1.5.2PL0 Copyright (c) Steve Scherf et al.
# Submitted via: ExactAudioCopy v0.99pb4
#
DISCID=be0b6e0c
DTITLE=Old Wave - Cztery Grosze
DYEAR=1900
DGENRE=R&B
TTITLE0=Cztery grosze
TTITLE1=Blues dla przyjació³
TTITLE2=Codzienny rock'n'roll
TTITLE3=Eldorado
TTITLE4=Firma "Zsyp"
TTITLE5=Katarakta
TTITLE6=Mój poranny blues
TTITLE7=Nie chcê
TTITLE8=Piszê podanie
TTITLE9=Dotkniêcie Midasa
TTITLE10=Zamieniê
TTITLE11=Zamieñ moje serce
EXTD=
EXTT0=
EXTT1=
EXTT2=
EXTT3=
EXTT4=
EXTT5=
EXTT6=
EXTT7=
EXTT8=
EXTT9=
EXTT10=
EXTT11=
PLAYORDER=
